<svg xmlns="http://www.w3.org/2000/svg" width="37" height="37" viewBox="0 0 37 37">
  <defs>
    <style>
      .cls-1 {
        fill: #fff;
      }
    </style>
  </defs>
  <g id="dollar-sign-icon-37x37" transform="translate(0 0)">
    <g id="Group_76" data-name="Group 76">
      <path id="Path_22" data-name="Path 22" class="cls-1" d="M37,18.5A18.5,18.5,0,1,1,18.524,0,18.508,18.508,0,0,1,37,18.5ZM33.838,18.5A15.335,15.335,0,1,0,18.447,33.833,15.337,15.337,0,0,0,33.838,18.5Z"/>
      <path id="Path_23" data-name="Path 23" class="cls-1" d="M5.522,18.478a12.983,12.983,0,1,1,12.55,13A13,13,0,0,1,5.522,18.478Zm12.2-7.329a12.264,12.264,0,0,0-1.3.358,7.481,7.481,0,0,0-1.169.613,3.841,3.841,0,0,0,.51,6.59c.555.255,1.143.439,1.71.667.1.039.236.139.237.212.016.931.011,1.862.011,2.842a7.325,7.325,0,0,1-2.843-1.708l-1.863,2.255a8.847,8.847,0,0,0,4.411,2.229c.237.042.309.128.3.353-.012.39,0,.78,0,1.176h2.112c0-.356.015-.687-.005-1.016-.017-.278.045-.4.363-.442a4.139,4.139,0,0,0,3.864-4.036A3.109,3.109,0,0,0,22.5,18.024a18.556,18.556,0,0,0-1.908-.852c-.243-.1-.5-.166-.728-.239V13.906l2.378,1.222,1.6-2.283a8.876,8.876,0,0,0-4.01-1.666v-.991h-2.1Z"/>
      <path id="Path_24" data-name="Path 24" class="cls-1" d="M19.756,22.472c0-.742,0-1.454,0-2.166,0-.06.008-.12.013-.181a1.108,1.108,0,0,1,1.016,1.121A1.173,1.173,0,0,1,19.756,22.472Z"/>
      <path id="Path_25" data-name="Path 25" class="cls-1" d="M17.625,14.045v2.266a1.289,1.289,0,0,1-.87-1.23A1.075,1.075,0,0,1,17.625,14.045Z"/>
    </g>
  </g>
</svg>
